<svg width="62" height="21" viewBox="0 0 62 21" fill="none" xmlns="http://www.w3.org/2000/svg">
<path d="M19.6 1.1L15.48 15H12.9L9.98 4.48L6.88 15L4.32 15.02L0.38 1.1H2.8L5.68 12.42L8.8 1.1H11.36L14.26 12.36L17.16 1.1H19.6ZM44.9161 3.98L38.1561 20.18H35.7961L38.0361 14.82L33.6961 3.98H36.2361L39.3361 12.38L42.5561 3.98H44.9161Z" fill="black"/>
<path d="M20.8405 9.48C20.8405 8.36 21.0671 7.38 21.5205 6.54C21.9738 5.68667 22.5938 5.02667 23.3805 4.56C24.1805 4.09333 25.0671 3.86 26.0405 3.86C27.0005 3.86 27.8338 4.06667 28.5405 4.48C29.2471 4.89333 29.7738 5.41333 30.1205 6.04V4.04H31.9605V15H30.1205V12.96C29.7605 13.6 29.2205 14.1333 28.5005 14.56C27.7938 14.9733 26.9671 15.18 26.0205 15.18C25.0471 15.18 24.1671 14.94 23.3805 14.46C22.5938 13.98 21.9738 13.3067 21.5205 12.44C21.0671 11.5733 20.8405 10.5867 20.8405 9.48ZM30.1205 9.5C30.1205 8.67333 29.9538 7.95333 29.6205 7.34C29.2871 6.72667 28.8338 6.26 28.2605 5.94C27.7005 5.60667 27.0805 5.44 26.4005 5.44C25.7205 5.44 25.1005 5.6 24.5405 5.92C23.9805 6.24 23.5338 6.70667 23.2005 7.32C22.8671 7.93333 22.7005 8.65333 22.7005 9.48C22.7005 10.32 22.8671 11.0533 23.2005 11.68C23.5338 12.2933 23.9805 12.7667 24.5405 13.1C25.1005 13.42 25.7205 13.58 26.4005 13.58C27.0805 13.58 27.7005 13.42 28.2605 13.1C28.8338 12.7667 29.2871 12.2933 29.6205 11.68C29.9538 11.0533 30.1205 10.3267 30.1205 9.5ZM45.2567 -1.19209e-06H50.1567V14.64H51.2767V15H45.3367V14.64H46.4367V0.359999H45.2567V-1.19209e-06ZM51.2719 5.84V5.48H57.0719V5.84H55.9919L58.1719 12.48L60.4919 5.84H59.1519V5.48H61.9719V5.84H60.9719L57.2319 16.62C56.7919 17.8733 56.2985 18.7467 55.7519 19.24C55.2052 19.7467 54.5385 20 53.7519 20C52.9652 20 52.3452 19.82 51.8919 19.46C51.4385 19.1 51.2119 18.64 51.2119 18.08C51.2119 17.52 51.3585 17.0933 51.6519 16.8C51.9452 16.5067 52.3319 16.36 52.8119 16.36C53.9185 16.36 54.4719 16.82 54.4719 17.74C54.4719 17.94 54.4319 18.18 54.3519 18.46H53.6519C53.5452 18.7667 53.5319 19.02 53.6119 19.22C53.6919 19.42 53.8719 19.52 54.1519 19.52C54.6985 19.52 55.1852 19.2467 55.6119 18.7C56.0385 18.1667 56.4452 17.3467 56.8319 16.24L57.2719 15H55.5119L52.0919 5.84H51.2719Z" fill="#4B90FF"/>
</svg>
